# Blender 3.3.1
# www.blender.org
o Gem
v -1.000000 0.000000 1.000000
v 1.000000 0.000000 1.000000
v -1.000000 0.000000 -1.000000
v 1.000000 0.000000 -1.000000
v 0.000000 1.500000 0.000000
v 0.000000 -1.500000 0.000000
vn -0.0000 -0.5547 -0.8321
vn -0.0000 0.5547 -0.8321
vn -0.0000 0.5547 0.8321
vn 0.8321 0.5547 -0.0000
vn -0.8321 0.5547 -0.0000
vn -0.0000 -0.5547 0.8321
vn 0.8321 -0.5547 -0.0000
vn -0.8321 -0.5547 -0.0000
vt 0.166667 0.500000
vt 0.833333 0.500000
vt 0.166667 0.500000
vt 0.166667 0.500000
vt 0.833333 0.500000
vt 0.833333 0.500000
vt 0.500000 1.000000
vt 0.500000 0.000000
s 0
f 3/4/1 4/6/1 6/8/1
f 4/6/2 3/4/2 5/7/2
f 1/1/3 2/2/3 5/7/3
f 2/3/4 4/6/4 5/7/4
f 3/5/5 1/1/5 5/7/5
f 2/2/6 1/1/6 6/8/6
f 4/6/7 2/3/7 6/8/7
f 1/1/8 3/5/8 6/8/8
