<svg width="1000" height="1000" viewBox="0 0 1000 1000" fill="none" xmlns="http://www.w3.org/2000/svg">
<path d="M560.765 117.065V249.965L672.499 314.344L672.497 174.904L560.765 117.065Z" fill="#F2B267"/>
<path d="M784.229 117.065V249.965L672.495 314.344L672.497 174.904L784.229 117.065Z" fill="#C3804D"/>
<path d="M560.765 117.065L672.497 59.2262L672.497 174.904L560.765 117.065Z" fill="#996442"/>
<path d="M784.229 117.065L672.497 59.2262L672.497 174.904L784.229 117.065Z" fill="#AF7045"/>
<path d="M672.497 174.904L654.008 232.759L543.675 173.406L560.765 117.065L672.497 174.904Z" fill="#F5C186"/>
<path d="M672.497 174.904L690.987 232.759L801.319 173.406L784.229 117.065L672.497 174.904Z" fill="#996442"/>
<path d="M558.675 406.229V539.128L670.409 603.508L670.408 464.068L558.675 406.229Z" fill="#F2B267"/>
<path d="M782.139 406.229V539.128L670.406 603.508L670.407 464.068L782.139 406.229Z" fill="#C3804D"/>
<path d="M558.675 406.229L670.407 348.39V464.068L558.675 406.229Z" fill="#996442"/>
<path d="M782.139 406.229L670.407 348.39V464.068L782.139 406.229Z" fill="#AF7045"/>
<path d="M242.788 113.851V246.751L354.522 311.13L354.52 171.69L242.788 113.851Z" fill="#F2B267"/>
<path d="M466.252 113.851V246.751L354.518 311.13L354.52 171.69L466.252 113.851Z" fill="#C3804D"/>
<path d="M242.788 113.851L354.52 56.012V171.69L242.788 113.851Z" fill="#996442"/>
<path d="M466.252 113.851L354.52 56.012V171.69L466.252 113.851Z" fill="#AF7045"/>
<path d="M285.073 135.923V271.112L300.658 280.092L300.658 143.99L285.073 135.923Z" fill="white" fill-opacity="0.171717"/>
<path d="M423.621 135.923V271.112L408.036 280.092L408.036 143.99L423.621 135.923Z" fill="white" fill-opacity="0.171717"/>
<path d="M354.52 171.69L336.031 229.545L225.699 170.192L242.788 113.851L354.52 171.69Z" fill="#F5C186"/>
<path d="M354.52 171.69L373.01 229.545L483.342 170.192L466.252 113.851L354.52 171.69Z" fill="#996442"/>
<path d="M242.788 113.851V246.751L354.522 311.13L354.52 171.69L242.788 113.851Z" fill="#F2B267"/>
<path d="M466.252 113.851V246.751L354.518 311.13L354.52 171.69L466.252 113.851Z" fill="#C3804D"/>
<path d="M242.788 113.851L354.52 56.012V171.69L242.788 113.851Z" fill="#996442"/>
<path d="M466.252 113.851L354.52 56.012V171.69L466.252 113.851Z" fill="#AF7045"/>
<path d="M285.073 135.923V271.112L300.658 280.092L300.658 143.99L285.073 135.923Z" fill="white" fill-opacity="0.171717"/>
<path d="M423.621 135.923V271.112L408.036 280.092L408.036 143.99L423.621 135.923Z" fill="white" fill-opacity="0.171717"/>
<path d="M354.52 171.69L336.031 229.545L225.699 170.192L242.788 113.851L354.52 171.69Z" fill="#F5C186"/>
<path d="M354.52 171.69L373.01 229.545L483.342 170.192L466.252 113.851L354.52 171.69Z" fill="#996442"/>
<path d="M341.454 359.588L229.722 417.428L212.633 473.768L229.722 482.961V550.327L341.453 614.705V614.707L341.454 614.706L341.456 614.707V614.705L453.186 550.327V482.962L470.276 473.768L453.187 417.428L341.454 359.588Z" stroke="black" stroke-width="30" stroke-linecap="round" stroke-linejoin="round"/>
<path d="M229.726 417.426V550.326L341.459 614.705L341.458 475.265L229.726 417.426Z" fill="#F2B267"/>
<path d="M453.19 417.426V550.326L341.456 614.705L341.457 475.265L453.19 417.426Z" fill="#C3804D"/>
<path d="M229.726 417.426L341.458 359.587V475.265L229.726 417.426Z" fill="#996442"/>
<path d="M453.19 417.426L341.458 359.587V475.265L453.19 417.426Z" fill="#AF7045"/>
<path d="M272.01 439.498V574.688L287.595 583.668L287.595 447.566L272.01 439.498Z" fill="white" fill-opacity="0.171717"/>
<path d="M410.558 439.498V574.688L394.973 583.668L394.974 447.566L410.558 439.498Z" fill="white" fill-opacity="0.171717"/>
<path d="M341.458 475.265L322.968 533.12L212.636 473.767L229.726 417.426L341.458 475.265Z" fill="#F5C186"/>
<path d="M341.458 475.265L359.947 533.12L470.279 473.767L453.19 417.426L341.458 475.265Z" fill="#996442"/>
<path d="M229.726 417.426V550.326L341.459 614.705L341.458 475.265L229.726 417.426Z" fill="#F2B267"/>
<path d="M453.19 417.426V550.326L341.456 614.705L341.457 475.265L453.19 417.426Z" fill="#C3804D"/>
<path d="M229.726 417.426L341.458 359.587V475.265L229.726 417.426Z" fill="#996442"/>
<path d="M453.19 417.426L341.458 359.587V475.265L453.19 417.426Z" fill="#AF7045"/>
<path d="M272.01 439.498V574.688L287.595 583.668L287.595 447.566L272.01 439.498Z" fill="white" fill-opacity="0.171717"/>
<path d="M410.558 439.498V574.688L394.973 583.668L394.974 447.566L410.558 439.498Z" fill="white" fill-opacity="0.171717"/>
<path d="M341.458 475.265L322.968 533.12L212.636 473.767L229.726 417.426L341.458 475.265Z" fill="#F5C186"/>
<path d="M341.458 475.265L359.947 533.12L470.279 473.767L453.19 417.426L341.458 475.265Z" fill="#996442"/>
<path d="M341.916 669.91L230.184 727.75L213.095 784.09L230.184 793.283V860.649L341.915 925.027V925.029L341.916 925.028L341.918 925.029V925.027L453.648 860.649V793.283L470.738 784.09L453.649 727.75L341.916 669.91Z" stroke="black" stroke-width="15" stroke-linecap="round" stroke-linejoin="round"/>
<path d="M230.188 727.748V860.647L341.921 925.027L341.92 785.587L230.188 727.748Z" fill="#F2B267"/>
<path d="M453.652 727.748V860.647L341.918 925.027L341.919 785.587L453.652 727.748Z" fill="#C3804D"/>
<path d="M230.188 727.748L341.92 669.909V785.587L230.188 727.748Z" fill="#996442"/>
<path d="M453.652 727.748L341.92 669.909V785.587L453.652 727.748Z" fill="#AF7045"/>
<path d="M272.472 749.819V885.009L288.057 893.989L288.057 757.887L272.472 749.819Z" fill="white" fill-opacity="0.171717"/>
<path d="M411.02 749.819V885.009L395.435 893.989L395.435 757.887L411.02 749.819Z" fill="white" fill-opacity="0.171717"/>
<path d="M341.92 785.587L323.43 843.441L213.098 784.088L230.187 727.748L341.92 785.587Z" fill="#F5C186"/>
<path d="M341.92 785.587L360.409 843.441L470.741 784.088L453.652 727.748L341.92 785.587Z" fill="#996442"/>
<path d="M230.188 727.748V860.647L341.921 925.027L341.92 785.587L230.188 727.748Z" fill="#F2B267"/>
<path d="M453.652 727.748V860.647L341.918 925.027L341.919 785.587L453.652 727.748Z" fill="#C3804D"/>
<path d="M230.188 727.748L341.92 669.909V785.587L230.188 727.748Z" fill="#996442"/>
<path d="M453.652 727.748L341.92 669.909V785.587L453.652 727.748Z" fill="#AF7045"/>
<path d="M272.472 749.819V885.009L288.057 893.989L288.057 757.887L272.472 749.819Z" fill="white" fill-opacity="0.348485"/>
<path d="M411.02 749.819V885.009L395.435 893.989L395.435 757.887L411.02 749.819Z" fill="white" fill-opacity="0.348485"/>
<path d="M341.92 785.587L323.43 843.441L213.098 784.088L230.187 727.748L341.92 785.587Z" fill="#F5C186"/>
<path d="M341.92 785.587L360.409 843.441L470.741 784.088L453.652 727.748L341.92 785.587Z" fill="#996442"/>
<path d="M674.5 673.153L562.769 730.993L545.679 787.333L562.769 796.526V863.892L674.499 928.27V928.272L674.501 928.271L674.502 928.272V928.27L786.232 863.892V796.527L803.322 787.333L786.233 730.993L674.5 673.153Z" stroke="black" stroke-width="15" stroke-linecap="round" stroke-linejoin="round"/>
<path d="M562.772 730.991V863.89L674.506 928.27L674.504 788.83L562.772 730.991Z" fill="#F2B267"/>
<path d="M786.236 730.991V863.89L674.502 928.27L674.504 788.83L786.236 730.991Z" fill="#C3804D"/>
<path d="M562.772 730.991L674.504 673.152V788.83L562.772 730.991Z" fill="#A66C47"/>
<path d="M786.236 730.991L674.504 673.152V788.83L786.236 730.991Z" fill="#C3804D"/>
<path d="M674.504 788.83L656.015 846.684L545.683 787.332L562.772 730.991L674.504 788.83Z" fill="#F5C186"/>
<path d="M674.504 788.83L692.994 846.684L803.326 787.332L786.236 730.991L674.504 788.83Z" fill="#A66C47"/>
</svg>
