<svg width="274" height="277" viewBox="0 0 274 277" fill="none" xmlns="http://www.w3.org/2000/svg">
<path d="M136.821 14.0013L25.0892 71.8412L8 128.181L25.0892 137.374V204.74L136.82 269.118V269.12L136.821 269.119L136.823 269.12V269.118L248.553 204.74V137.375L265.643 128.181L248.554 71.8412L136.821 14.0013Z" stroke="black" stroke-width="15" stroke-linecap="round" stroke-linejoin="round"/>
<path d="M25.0927 71.8391V204.739L136.826 269.118L136.825 129.678L25.0927 71.8391Z" fill="#BDBDBD"/>
<path d="M248.557 71.8391V204.739L136.823 269.118L136.824 129.678L248.557 71.8391Z" fill="#8E8E8E"/>
<path d="M25.0927 71.8391L136.825 14V129.678L25.0927 71.8391Z" fill="#797979"/>
<path d="M248.557 71.8391L136.825 14V129.678L248.557 71.8391Z" fill="#8E8E8E"/>
<path d="M136.825 129.678L118.335 187.533L8.00317 128.18L25.0927 71.8391L136.825 129.678Z" fill="#CACACA"/>
<path d="M136.825 129.678L155.314 187.533L265.646 128.18L248.557 71.8391L136.825 129.678Z" fill="#797979"/>
<path d="M124.8 163.4V130.6C135.733 130.067 144.267 127.4 150.4 122.6C156.667 117.8 159.8 111.2 159.8 102.8V100C159.8 93.2 157.667 87.8 153.4 83.8C149.133 79.6667 143.4 77.6 136.2 77.6C128.467 77.6 122.267 79.8 117.6 84.2C113.067 88.6 110 94.2 108.4 101L93.6 95.4C94.8 91.1333 96.5333 87.0667 98.8 83.2C101.2 79.2 104.133 75.7333 107.6 72.8C111.2 69.7333 115.4 67.3333 120.2 65.6C125 63.8667 130.533 63 136.8 63C149.2 63 159 66.4 166.2 73.2C173.4 80 177 89.2 177 100.8C177 107.2 175.867 112.8 173.6 117.6C171.467 122.267 168.667 126.267 165.2 129.6C161.733 132.933 157.8 135.6 153.4 137.6C149 139.6 144.6 141 140.2 141.8V163.4H124.8ZM132.6 207.4C128.333 207.4 125.2 206.333 123.2 204.2C121.333 202.067 120.4 199.267 120.4 195.8V193.2C120.4 189.733 121.333 186.933 123.2 184.8C125.2 182.667 128.333 181.6 132.6 181.6C136.867 181.6 139.933 182.667 141.8 184.8C143.8 186.933 144.8 189.733 144.8 193.2V195.8C144.8 199.267 143.8 202.067 141.8 204.2C139.933 206.333 136.867 207.4 132.6 207.4Z" fill="black"/>
</svg>
