<svg width="273" height="271" viewBox="0 0 273 271" fill="none" xmlns="http://www.w3.org/2000/svg">
<path d="M136.5 8.15308L24.7686 65.9929L7.67944 122.333L24.7686 131.526V198.892L136.499 263.27V263.272L136.501 263.271L136.502 263.272V263.27L248.232 198.892V131.527L265.322 122.333L248.233 65.9929L136.5 8.15308Z" stroke="black" stroke-width="15" stroke-linecap="round" stroke-linejoin="round"/>
<path d="M24.7722 65.9908V198.89L136.506 263.27L136.504 123.83L24.7722 65.9908Z" fill="#F2B267"/>
<path d="M248.236 65.9908V198.89L136.502 263.27L136.504 123.83L248.236 65.9908Z" fill="#C3804D"/>
<path d="M24.7722 65.9908L136.504 8.15173V123.83L24.7722 65.9908Z" fill="#A66C47"/>
<path d="M248.236 65.9908L136.504 8.15173V123.83L248.236 65.9908Z" fill="#C3804D"/>
<path d="M136.504 123.83L118.015 181.684L7.68262 122.332L24.7722 65.9908L136.504 123.83Z" fill="#F5C186"/>
<path d="M136.504 123.83L154.994 181.684L265.326 122.332L248.236 65.9908L136.504 123.83Z" fill="#A66C47"/>
</svg>
