<svg width="1600" height="1600" viewBox="0 0 1600 1600" fill="none" xmlns="http://www.w3.org/2000/svg">
<rect width="1600" height="1600" fill="#121212"/>
<path d="M425 87H950L1500 387H400L425 87Z" fill="#CC0000"/>
<path d="M325 462H850L1400 762H300L325 462Z" fill="#00CC00"/>
<path d="M225 837H750L1300 1137H200L225 837Z" fill="#0000CC"/>
<path d="M125 1212H650L1200 1512H100L125 1212Z" fill="#CCCC00"/>
<path d="M423 111H944L1450 387H400L423 111Z" fill="#FF0000"/>
<path d="M323 486H844L1350 762H300L323 486Z" fill="#00FF00"/>
<path d="M223 861H744L1250 1137H200L223 861Z" fill="#0000FF"/>
<path d="M123 1236H644L1150 1512H100L123 1236Z" fill="#FFFF00"/>
</svg>
