<svg width="400" height="400" viewBox="0 0 400 400" fill="none" xmlns="http://www.w3.org/2000/svg">
<path d="M400 50H0V100H400V50Z" fill="white"/>
<path d="M400 150H0V200H400V150Z" fill="white"/>
<path d="M400 250H0V300H400V250Z" fill="white"/>
<path d="M400 350H0V400H400V350Z" fill="white"/>
<path d="M50 0H0V400H50V0Z" fill="white"/>
<path d="M350 0H300V400H350V0Z" fill="white"/>
<path d="M250 350H200V400H250V350Z" fill="white"/>
<path d="M150 0H100V200H150V0Z" fill="white"/>
<path d="M150 250H100V400H150V250Z" fill="white"/>
<path d="M250 0H200V100H250V0Z" fill="white"/>
<path d="M250 150H200V300H250V150Z" fill="white"/>
</svg>
