# Blender v2.79 (sub 0) OBJ File: 'flag.blend'
# www.blender.org
mtllib flag.mtl
o Flag_Cube.001
v 1.000000 0.000000 1.000000
v 1.000000 72.000000 1.000000
v -1.000000 0.000000 1.000000
v -1.000000 72.000000 1.000000
v 1.000000 0.000000 -1.000000
v 1.000000 72.000000 -1.000000
v -1.000000 0.000000 -1.000000
v -1.000000 72.000000 -1.000000
v -2.368399 69.983063 16.033752
v -2.368399 71.983063 16.033752
v -4.368399 69.983063 16.033752
v -4.368399 71.983063 16.033752
v -2.368400 69.983063 -15.966250
v -2.368400 71.983063 -15.966250
v -4.368400 69.983063 -15.966250
v -4.368400 71.983063 -15.966250
v -3.968399 69.983063 15.233752
v -2.768399 69.983063 15.233752
v -3.968400 69.983063 -15.166251
v -2.768400 69.983063 -15.166251
v -3.968399 9.983063 15.233752
v -2.768399 9.983063 15.233752
v -3.968400 9.983063 -15.166251
v -2.768400 9.983063 -15.166251
vt 0.915277 0.030132
vt 0.915279 0.969868
vt 0.889175 0.969868
vt 0.889173 0.030132
vt 0.863071 0.969868
vt 0.863069 0.030132
vt 0.836967 0.969868
vt 0.836965 0.030132
vt 0.941381 0.030132
vt 0.941383 0.969868
vt 0.863069 0.004028
vt 0.836965 0.004028
vt 0.863071 0.995972
vt 0.836967 0.995972
vt 0.014275 0.843454
vt 0.039893 0.843454
vt 0.039893 0.869072
vt 0.014275 0.869072
vt 0.039893 0.894690
vt 0.449776 0.869072
vt 0.449776 0.894690
vt 0.475393 0.869072
vt 0.449776 0.843454
vt 0.475393 0.843454
vt 0.449776 0.817837
vt 0.039893 0.817837
vt 0.050017 0.810924
vt 0.435825 0.810862
vt 0.813247 0.802805
vt 0.416469 0.802805
vt 0.416468 0.019691
vt 0.813247 0.019691
vt 0.439652 0.901602
vt 0.053843 0.901665
vt 0.004028 0.863949
vt 0.004028 0.848578
vt 0.485640 0.848578
vt 0.485640 0.863949
vt 0.400807 0.019691
vt 0.004029 0.019690
vt 0.004029 0.004028
vt 0.400807 0.004028
vt 0.400806 0.802806
vt 0.004028 0.802805
vt 0.828909 0.802805
vt 0.828908 0.019691
vn 0.0000 0.0000 1.0000
vn -1.0000 0.0000 0.0000
vn -0.0000 0.0000 -1.0000
vn 1.0000 0.0000 -0.0000
vn 0.0000 -1.0000 0.0000
vn 0.0000 1.0000 0.0000
usemtl Flag
s off
f 1/1/1 2/2/1 4/3/1 3/4/1
f 3/4/2 4/3/2 8/5/2 7/6/2
f 7/6/3 8/5/3 6/7/3 5/8/3
f 5/9/4 6/10/4 2/2/4 1/1/4
f 3/11/5 7/6/5 5/8/5 1/12/5
f 8/5/6 4/13/6 2/14/6 6/7/6
f 9/15/1 10/16/1 12/17/1 11/18/1
f 11/19/2 12/17/2 16/20/2 15/21/2
f 15/22/3 16/20/3 14/23/3 13/24/3
f 13/25/4 14/23/4 10/16/4 9/26/4
f 13/25/5 9/26/5 18/27/5 20/28/5
f 16/20/6 12/17/6 10/16/6 14/23/6
f 20/29/4 18/30/4 22/31/4 24/32/4
f 11/19/5 15/21/5 19/33/5 17/34/5
f 9/15/5 11/18/5 17/35/5 18/36/5
f 15/22/5 13/24/5 20/37/5 19/38/5
f 21/39/5 23/40/5 24/41/5 22/42/5
f 17/43/2 19/44/2 23/40/2 21/39/2
f 19/45/3 20/29/3 24/32/3 23/46/3
f 18/30/1 17/43/1 21/39/1 22/31/1
