<svg width="220" height="220" viewBox="0 0 220 220" fill="none" xmlns="http://www.w3.org/2000/svg">
<path d="M108.911 172.663C92.6257 150.25 93.0056 122.211 109.762 110.037C126.517 97.863 153.3 106.166 169.585 128.58C185.872 150.996 185.489 179.034 168.733 191.206C151.977 203.383 125.196 195.077 108.911 172.663Z" fill="#FF2400"/>
<path d="M109.961 110.039C93.2062 97.8661 66.422 106.168 50.1365 128.582C33.8509 150.996 34.2311 179.035 50.9856 191.208C67.7401 203.381 94.5243 195.08 110.81 172.666C127.095 150.252 126.715 122.213 109.961 110.039Z" fill="#FF2400"/>
<path d="M109.681 110.224C116.08 129.921 142.629 138.949 168.979 130.388C195.329 121.828 211.502 98.9199 205.103 79.2225C198.703 59.5251 172.154 50.4971 145.804 59.0579C119.454 67.6187 103.281 90.5264 109.681 110.224Z" fill="#FF2400"/>
<path d="M110.017 110.194C116.416 90.4961 100.242 67.5874 73.8903 59.0261C47.5386 50.4648 20.9885 59.4928 14.5889 79.1908C8.1893 98.8887 24.3636 121.797 50.7153 130.359C77.0669 138.92 103.617 129.892 110.017 110.194Z" fill="#FF2400"/>
<path d="M109.853 110.334C130.563 110.334 147.353 87.8735 147.353 60.167C147.353 32.4605 130.563 10 109.853 10C89.142 10 72.3526 32.4605 72.3526 60.167C72.3526 87.8735 89.142 110.334 109.853 110.334Z" fill="#FF2400"/>
<path fill-rule="evenodd" clip-rule="evenodd" d="M109.971 111.782C109.931 111.782 109.892 111.782 109.853 111.782C89.142 111.782 72.3526 89.3213 72.3526 61.6148C72.3526 61.0745 72.359 60.5362 72.3717 60C72.8779 60.1515 73.3841 60.3095 73.8903 60.4739C100.242 69.0352 116.416 91.9439 110.017 111.642C110.001 111.688 109.986 111.735 109.971 111.782Z" fill="#BF1600"/>
<path fill-rule="evenodd" clip-rule="evenodd" d="M168.979 131.836C142.629 140.397 116.08 131.369 109.681 111.672C109.675 111.653 109.669 111.635 109.663 111.617C126.421 99.4953 153.167 107.804 169.436 130.196C169.725 130.594 170.009 130.994 170.288 131.396C169.855 131.547 169.418 131.694 168.979 131.836Z" fill="#BF1600"/>
<path fill-rule="evenodd" clip-rule="evenodd" d="M109.669 111.552C93.0043 123.762 92.6557 151.739 108.911 174.111C109.22 174.537 109.534 174.958 109.851 175.374C110.124 175.014 110.394 174.649 110.661 174.281C126.947 151.867 126.566 123.829 109.812 111.655C109.764 111.621 109.717 111.586 109.669 111.552Z" fill="#BF1600"/>
<path fill-rule="evenodd" clip-rule="evenodd" d="M109.969 111.493C109.936 111.599 109.902 111.704 109.868 111.81C103.468 131.508 76.9181 140.536 50.5665 131.974C50.0772 131.815 49.5914 131.652 49.1093 131.483C49.444 130.996 49.7864 130.512 50.1365 130.03C66.422 107.616 93.2062 99.3139 109.961 111.487C109.963 111.489 109.966 111.491 109.969 111.493Z" fill="#BF1600"/>
<path fill-rule="evenodd" clip-rule="evenodd" d="M147.204 61.7828C147.204 89.4893 130.415 111.95 109.704 111.95C109.658 111.95 109.613 111.95 109.568 111.949C109.556 111.913 109.544 111.876 109.532 111.84C103.132 92.1422 119.306 69.2345 145.656 60.6737C146.166 60.508 146.676 60.3489 147.185 60.1964C147.198 60.7232 147.204 61.252 147.204 61.7828Z" fill="#BF1600"/>
<path d="M109.761 110.048C93.0061 122.222 92.6256 150.26 108.911 172.674C125.196 195.087 151.98 203.389 168.735 191.215C185.489 179.042 185.869 151.004 169.584 128.59C153.299 106.176 126.515 97.8749 109.761 110.048Z" stroke="black" stroke-width="3" stroke-miterlimit="10"/>
<path d="M109.955 110.04C93.2005 97.8663 66.4159 106.168 50.1304 128.582C33.8448 150.996 34.2253 179.035 50.9803 191.209C67.7352 203.382 94.5198 195.081 110.805 172.667C127.091 150.253 126.71 122.214 109.955 110.04Z" stroke="black" stroke-width="3" stroke-miterlimit="10"/>
<path d="M109.68 110.224C116.079 129.922 142.628 138.949 168.979 130.388C195.329 121.828 211.503 98.9196 205.104 79.2222C198.704 59.5248 172.155 50.4969 145.804 59.0579C119.454 67.6188 103.28 90.5267 109.68 110.224Z" stroke="black" stroke-width="3" stroke-miterlimit="10"/>
<path d="M110.015 110.19C116.415 90.4924 100.24 67.5837 73.8889 59.0224C47.5372 50.4611 20.9871 59.4892 14.5875 79.1871C8.1879 98.885 24.3622 121.794 50.7139 130.355C77.0655 138.916 103.616 129.888 110.015 110.19Z" stroke="black" stroke-width="3" stroke-miterlimit="10"/>
<path d="M109.853 110.334C130.563 110.334 147.353 87.8735 147.353 60.167C147.353 32.4605 130.563 10 109.853 10C89.142 10 72.3526 32.4605 72.3526 60.167C72.3526 87.8735 89.142 110.334 109.853 110.334Z" stroke="black" stroke-width="3" stroke-miterlimit="10"/>
<path d="M109.853 127.668C119.518 127.668 127.353 119.833 127.353 110.168C127.353 100.503 119.518 92.668 109.853 92.668C100.188 92.668 92.3526 100.503 92.3526 110.168C92.3526 119.833 100.188 127.668 109.853 127.668Z" fill="#FFA400" stroke="black" stroke-width="3" stroke-miterlimit="10"/>
</svg>
